<svg width="23" height="23" viewBox="0 0 23 23" fill="none" xmlns="http://www.w3.org/2000/svg">
<path d="M15.0674 2.8252C16.316 2.8252 17.5135 3.32124 18.3965 4.2041C19.2794 5.08705 19.7763 6.28452 19.7764 7.5332V15.0664C19.7764 16.3151 19.2795 17.5125 18.3965 18.3955C17.5135 19.2785 16.3161 19.7754 15.0674 19.7754H7.53418C6.2855 19.7754 5.08803 19.2785 4.20508 18.3955C3.32222 17.5125 2.82617 16.315 2.82617 15.0664V7.5332C2.82621 6.28452 3.32213 5.08705 4.20508 4.2041C5.08803 3.32115 6.2855 2.82523 7.53418 2.8252H15.0674ZM11.3008 7.5332C10.3019 7.53325 9.34404 7.93038 8.6377 8.63672C7.93135 9.34306 7.53423 10.3009 7.53418 11.2998C7.53418 12.2988 7.93131 13.2575 8.6377 13.9639C9.34401 14.67 10.302 15.0664 11.3008 15.0664C12.2998 15.0664 13.2585 14.6703 13.9648 13.9639C14.6712 13.2575 15.0674 12.2988 15.0674 11.2998C15.0673 10.301 14.671 9.34303 13.9648 8.63672C13.2585 7.93033 12.2998 7.5332 11.3008 7.5332ZM11.3008 9.41699C11.8003 9.41699 12.2796 9.61556 12.6328 9.96875C12.9858 10.3219 13.1845 10.8005 13.1846 11.2998C13.1846 11.7993 12.986 12.2786 12.6328 12.6318C12.2796 12.985 11.8003 13.1836 11.3008 13.1836C10.8015 13.1835 10.3228 12.9848 9.96973 12.6318C9.61653 12.2786 9.41797 11.7993 9.41797 11.2998C9.41802 10.8004 9.61658 10.3219 9.96973 9.96875C10.3229 9.6156 10.8014 9.41704 11.3008 9.41699ZM15.5381 6.12109C15.2886 6.1212 15.0495 6.22016 14.873 6.39648C14.6965 6.57308 14.5967 6.81275 14.5967 7.0625C14.5967 7.31225 14.6965 7.55192 14.873 7.72852C15.0495 7.90484 15.2886 8.0038 15.5381 8.00391C15.7877 8.00391 16.0275 7.90499 16.2041 7.72852C16.3807 7.55192 16.4805 7.31225 16.4805 7.0625C16.4805 6.81275 16.3807 6.57308 16.2041 6.39648C16.0275 6.22001 15.7877 6.12109 15.5381 6.12109Z" fill="#737373"/>
</svg>
