<svg width="23" height="23" viewBox="0 0 23 23" fill="none" xmlns="http://www.w3.org/2000/svg">
<path d="M11.3014 1.8833C6.12227 1.8833 1.88477 6.1208 1.88477 11.3C1.88477 16.4791 6.12227 20.7166 11.3014 20.7166C16.4806 20.7166 20.7181 16.4791 20.7181 11.3C20.7181 6.1208 16.5277 1.8833 11.3014 1.8833ZM14.8327 15.6787C12.6198 14.3133 9.84185 14.0308 6.54602 14.7841C6.21643 14.8783 5.93393 14.6429 5.83977 14.3604C5.7456 14.0308 5.98102 13.7483 6.26352 13.6541C9.84185 12.8537 12.9494 13.1833 15.3977 14.69C15.7273 14.8312 15.7744 15.2079 15.6331 15.4904C15.4448 15.7729 15.1152 15.8671 14.8327 15.6787ZM15.7744 13.1362C13.2319 11.5825 9.37102 11.1116 6.40477 12.0533C6.0281 12.1475 5.60435 11.9591 5.51018 11.5825C5.41602 11.2058 5.60435 10.7821 5.98102 10.6879C9.4181 9.65205 13.6556 10.17 16.5748 11.9591C16.8573 12.1004 16.9985 12.5712 16.7631 12.9008C16.5277 13.2304 16.1039 13.3716 15.7744 13.1362ZM5.93299 9.18122C5.46216 9.32247 4.99132 9.03997 4.85007 8.61622C4.70882 8.14538 4.99132 7.67455 5.41507 7.5333C8.75799 6.54455 14.2667 6.73288 17.7509 8.80455C18.1747 9.03997 18.3159 9.60497 18.0805 10.0287C17.8451 10.3583 17.2801 10.4996 16.8563 10.2641C13.843 8.47497 8.80508 8.28663 5.93299 9.18122Z" fill="#737373"/>
</svg>
