<svg width="23" height="23" viewBox="0 0 23 23" fill="none" xmlns="http://www.w3.org/2000/svg">
<path d="M15.6323 5.4807C14.9888 4.74575 14.634 3.80208 14.6341 2.8252H11.7244V14.5019C11.7024 15.1339 11.4358 15.7327 10.9808 16.1719C10.5257 16.6111 9.91789 16.8564 9.28547 16.856C7.9483 16.856 6.83714 15.7637 6.83714 14.4077C6.83714 12.788 8.4003 11.5733 10.0106 12.0724V9.09669C6.7618 8.66353 3.91797 11.1872 3.91797 14.4077C3.91797 17.5434 6.51697 19.7752 9.27605 19.7752C12.2329 19.7752 14.6341 17.3739 14.6341 14.4077V8.48461C15.814 9.33197 17.2307 9.7866 18.6833 9.78411V6.87436C18.6833 6.87436 16.913 6.95911 15.6323 5.4807Z" fill="#737373"/>
</svg>
