<svg width="23" height="23" viewBox="0 0 23 23" fill="none" xmlns="http://www.w3.org/2000/svg">
<path fill-rule="evenodd" clip-rule="evenodd" d="M11.2995 3.7666C12.1046 3.7666 12.9304 3.78732 13.7309 3.82122L14.6763 3.86642L15.5812 3.92009L16.4287 3.97753L17.2028 4.0378C18.0429 4.10173 18.8336 4.46008 19.4354 5.04972C20.0373 5.63936 20.4118 6.42247 20.493 7.26113L20.5306 7.66133L20.6013 8.51825C20.6672 9.40624 20.7161 10.3743 20.7161 11.2999C20.7161 12.2256 20.6672 13.1936 20.6013 14.0816L20.5306 14.9385L20.493 15.3387C20.4118 16.1775 20.0371 16.9608 19.4351 17.5504C18.833 18.1401 18.0422 18.4984 17.2018 18.5621L16.4297 18.6214L15.5822 18.6798L14.6763 18.7335L13.7309 18.7787C12.9209 18.8137 12.1102 18.8319 11.2995 18.8333C10.4887 18.8319 9.67809 18.8137 8.8681 18.7787L7.92266 18.7335L7.01772 18.6798L6.17022 18.6214L5.39617 18.5621C4.55603 18.4981 3.76539 18.1398 3.16352 17.5502C2.56165 16.9605 2.18715 16.1774 2.10599 15.3387L2.06832 14.9385L1.9977 14.0816C1.92597 13.1561 1.88765 12.2282 1.88281 11.2999C1.88281 10.3743 1.93178 9.40624 1.9977 8.51825L2.06832 7.66133L2.10599 7.26113C2.18712 6.42262 2.56148 5.63963 3.16316 5.05C3.76484 4.46038 4.55525 4.10194 5.39523 4.0378L6.16834 3.97753L7.01584 3.92009L7.92172 3.86642L8.86716 3.82122C9.67746 3.78612 10.4884 3.76791 11.2995 3.7666ZM9.41615 9.01639V13.5835C9.41615 14.0185 9.88698 14.2897 10.2636 14.0731L14.2186 11.7896C14.3047 11.7401 14.3762 11.6687 14.4259 11.5828C14.4756 11.4968 14.5018 11.3992 14.5018 11.2999C14.5018 11.2006 14.4756 11.1031 14.4259 11.0171C14.3762 10.9312 14.3047 10.8598 14.2186 10.8103L10.2636 8.52767C10.1777 8.47806 10.0803 8.45196 9.98106 8.45197C9.88185 8.45199 9.78439 8.47813 9.69849 8.52776C9.61259 8.57739 9.54127 8.64877 9.49171 8.73471C9.44214 8.82065 9.41608 8.91813 9.41615 9.01734V9.01639Z" fill="#737373"/>
</svg>
